HIERARCHY
ROOT hip
{
  OFFSET 0 0 0
  CHANNELS 6 Xposition Yposition Zposition Zrotation Yrotation Xrotation
  JOINT abdomen
  {
    OFFSET 0 20.6881 -0.73152
    CHANNELS 3 Zrotation Xrotation Yrotation
    JOINT chest
    {
      OFFSET 0 11.7043 -0.48768
      CHANNELS 3 Zrotation Xrotation Yrotation
      JOINT neck
      {
        OFFSET 0 22.1894 -2.19456
        CHANNELS 3 Zrotation Xrotation Yrotation
        JOINT head
        {
          OFFSET -0.24384 7.07133 1.2192
          CHANNELS 3 Zrotation Xrotation Yrotation
          JOINT leftEye
          {
            OFFSET 4.14528 8.04674 8.04672
            CHANNELS 3 Zrotation Xrotation Yrotation
            End Site
            {
              OFFSET 1 0 0
            }
          }
          JOINT rightEye
          {
            OFFSET -3.6576 8.04674 8.04672
            CHANNELS 3 Zrotation Xrotation Yrotation
            End Site
            {
              OFFSET 1 0 0
            }
          }
        }
      }
      JOINT rCollar
      {
        OFFSET -2.68224 19.2634 -4.8768
        CHANNELS 3 Zrotation Xrotation Yrotation
        JOINT rShldr
        {
          OFFSET -8.77824 -1.95073 1.46304
          CHANNELS 3 Zrotation Xrotation Yrotation
          JOINT rForeArm
          {
            OFFSET -28.1742 -1.7115 0.48768
            CHANNELS 3 Zrotation Xrotation Yrotation
            JOINT rHand
            {
              OFFSET -22.5879 0.773209 7.07136
              CHANNELS 3 Zrotation Xrotation Yrotation
              JOINT rThumb1
              {
                OFFSET -1.2192 -0.487915 3.41376
                CHANNELS 3 Zrotation Xrotation Yrotation
                JOINT rThumb2
                {
                  OFFSET -3.37035 -0.52449 3.41376
                  CHANNELS 3 Zrotation Xrotation Yrotation
                  End Site
                  {
                    OFFSET -1.78271 -1.18214 1.43049
                  }
                }
              }
              JOINT rIndex1
              {
                OFFSET -7.75947 0.938293 5.60832
                CHANNELS 3 Zrotation Xrotation Yrotation
                JOINT rIndex2
                {
                  OFFSET -2.54057 -0.884171 1.56538
                  CHANNELS 3 Zrotation Xrotation Yrotation
                  End Site
                  {
                    OFFSET -1.62519 -0.234802 1.16502
                  }
                }
              }
              JOINT rMid1
              {
                OFFSET -8.24714 1.18213 3.41376
                CHANNELS 3 Zrotation Xrotation Yrotation
                JOINT rMid2
                {
                  OFFSET -3.10165 -0.590103 1.0647
                  CHANNELS 3 Zrotation Xrotation Yrotation
                  End Site
                  {
                    OFFSET -2.48547 -0.328903 0.83742
                  }
                }
              }
              JOINT rRing1
              {
                OFFSET -8.82822 0.546677 1.51678
                CHANNELS 3 Zrotation Xrotation Yrotation
                JOINT rRing2
                {
                  OFFSET -2.60934 -0.819778 -0.0198488
                  CHANNELS 3 Zrotation Xrotation Yrotation
                  End Site
                  {
                    OFFSET -2.33842 -0.294052 0.168128
                  }
                }
              }
              JOINT rPinky1
              {
                OFFSET -8.27202 -0.0477905 -0.4584
                CHANNELS 3 Zrotation Xrotation Yrotation
                JOINT rPinky2
                {
                  OFFSET -1.82734 -0.647385 -0.700984
                  CHANNELS 3 Zrotation Xrotation Yrotation
                  End Site
                  {
                    OFFSET -1.69225 -0.51767 -0.607171
                  }
                }
              }
            }
          }
        }
      }
      JOINT lCollar
      {
        OFFSET 2.68224 19.2634 -4.8768
        CHANNELS 3 Zrotation Xrotation Yrotation
        JOINT lShldr
        {
          OFFSET 8.77824 -1.95073 1.46304
          CHANNELS 3 Zrotation Xrotation Yrotation
          JOINT lForeArm
          {
            OFFSET 28.1742 -1.7115 0.48768
            CHANNELS 3 Zrotation Xrotation Yrotation
            JOINT lHand
            {
              OFFSET 22.5879 0.773209 7.07136
              CHANNELS 3 Zrotation Xrotation Yrotation
              JOINT lThumb1
              {
                OFFSET 1.2192 -0.487915 3.41376
                CHANNELS 3 Zrotation Xrotation Yrotation
                JOINT lThumb2
                {
                  OFFSET 3.37035 -0.52449 3.41376
                  CHANNELS 3 Zrotation Xrotation Yrotation
                  End Site
                  {
                    OFFSET 1.78271 -1.18214 1.43049
                  }
                }
              }
              JOINT lIndex1
              {
                OFFSET 7.75947 0.938293 5.60832
                CHANNELS 3 Zrotation Xrotation Yrotation
                JOINT lIndex2
                {
                  OFFSET 2.54057 -0.884171 1.56538
                  CHANNELS 3 Zrotation Xrotation Yrotation
                  End Site
                  {
                    OFFSET 1.62519 -0.234802 1.16502
                  }
                }
              }
              JOINT lMid1
              {
                OFFSET 8.24714 1.18213 3.41376
                CHANNELS 3 Zrotation Xrotation Yrotation
                JOINT lMid2
                {
                  OFFSET 3.10165 -0.590103 1.0647
                  CHANNELS 3 Zrotation Xrotation Yrotation
                  End Site
                  {
                    OFFSET 2.48547 -0.328903 0.83742
                  }
                }
              }
              JOINT lRing1
              {
                OFFSET 8.82822 0.546677 1.51678
                CHANNELS 3 Zrotation Xrotation Yrotation
                JOINT lRing2
                {
                  OFFSET 2.60934 -0.819778 -0.0198488
                  CHANNELS 3 Zrotation Xrotation Yrotation
                  End Site
                  {
                    OFFSET 2.33842 -0.294052 0.168128
                  }
                }
              }
              JOINT lPinky1
              {
                OFFSET 8.27202 -0.0477905 -0.4584
                CHANNELS 3 Zrotation Xrotation Yrotation
                JOINT lPinky2
                {
                  OFFSET 1.82734 -0.647385 -0.700984
                  CHANNELS 3 Zrotation Xrotation Yrotation
                  End Site
                  {
                    OFFSET 1.69225 -0.51767 -0.607171
                  }
                }
              }
            }
          }
        }
      }
    }
  }
  JOINT rButtock
  {
    OFFSET -8.77824 4.35084 1.2192
    CHANNELS 3 Zrotation Xrotation Yrotation
    JOINT rThigh
    {
      OFFSET 0 -1.70687 -2.19456
      CHANNELS 3 Zrotation Xrotation Yrotation
      JOINT rShin
      {
        OFFSET 0 -36.8199 0.73152
        CHANNELS 3 Zrotation Xrotation Yrotation
        JOINT rFoot
        {
          OFFSET 0.73152 -45.1104 -5.12064
          CHANNELS 3 Zrotation Xrotation Yrotation
          End Site
          {
            OFFSET -1.1221 -3.69964 12.103
          }
        }
      }
    }
  }
  JOINT lButtock
  {
    OFFSET 8.77824 4.35084 1.2192
    CHANNELS 3 Zrotation Xrotation Yrotation
    JOINT lThigh
    {
      OFFSET 0 -1.70687 -2.19456
      CHANNELS 3 Zrotation Xrotation Yrotation
      JOINT lShin
      {
        OFFSET 0 -36.8199 0.73152
        CHANNELS 3 Zrotation Xrotation Yrotation
        JOINT lFoot
        {
          OFFSET -0.73152 -45.1104 -5.12064
          CHANNELS 3 Zrotation Xrotation Yrotation
          End Site
          {
            OFFSET 1.1221 -3.69964 12.103
          }
        }
      }
    }
  }
}
MOTION
Frames:	4
Frame Time:	0.03333
0.0 0.0 0.0 0.0 0.0 0.0 0.0 0.0 0.0 0.0 0.0 0.0 0.0 0.0 0.0 0.0 0.0 0.0 0.0 0.0 0.0 0.0 0.0 0.0 0.0 0.0 0.0 0.0 0.0 0.0 0.0 0.0 0.0 0.0 0.0 0.0 0.0 0.0 0.0 0.0 0.0 0.0 0.0 0.0 0.0 0.0 0.0 0.0 0.0 0.0 0.0 0.0 0.0 0.0 0.0 0.0 0.0 0.0 0.0 0.0 0.0 0.0 0.0 0.0 0.0 0.0 0.0 0.0 0.0 0.0 0.0 0.0 0.0 0.0 0.0 0.0 0.0 0.0 0.0 0.0 0.0 0.0 0.0 0.0 0.0 0.0 0.0 0.0 0.0 0.0 0.0 0.0 0.0 0.0 0.0 0.0 0.0 0.0 0.0 0.0 0.0 0.0 0.0 0.0 0.0 0.0 0.0 0.0 0.0 0.0 0.0 0.0 0.0 0.0 0.0 0.0 0.0 0.0 0.0 0.0 0.0 0.0 0.0 0.0 0.0 0.0 0.0 0.0 0.0 0.0 0.0 0.0
-0.0998 21.2392 0.1065 9.304549 75.095505 10.034203 -20.86309 -2.851178 -1.994695 44.305293 17.393801 -94.38517 11.255852 -47.518421 -23.905635 139.119628 47.539527 -69.832635 -175.827311 2.02951 51.859463 -48.902998 -24.012601 50.132281 130.079378 -28.6413 -155.043974 -172.128237 15.414338 -13.631373 178.059866 -11.390264 -162.682651 84.550838 49.426208 -112.532956 -18.792733 2.527 145.763133 -11.601326 -8.108995 -150.295613 132.002977 49.46849 -110.013526 -179.15982 -38.761712 -101.425932 25.654796 -24.571039 81.503614 -149.246869 -11.881111 104.481522 25.945295 37.497023 99.409541 -91.018206 28.439232 85.870628 -20.56857 43.109017 108.936718 43.862534 -9.048114 -175.892671 125.68402 -27.088726 -51.482657 107.440305 -2.421985 -78.181504 109.175018 -87.859254 50.63554 -45.20048 -8.526408 130.348853 76.032411 62.849408 -40.361266 -148.262813 46.543844 45.156513 -72.703886 -72.905445 -103.73352 2.356438 5.591659 138.885872 -109.234844 -42.254192 -112.786122 -37.671387 64.498763 -23.653764 -48.01438 -54.783627 -48.16929 -120.116838 -84.245801 86.13863 146.638767 84.579239 -85.346605 -86.443071 62.336684 138.779773 -70.903233 20.968249 -28.361627 69.170333 17.936681 -83.317254 -5.12559 24.623735 -164.035944 47.160961 67.163446 176.299405 -46.73121 -15.839299 -82.420621 -4.392147 45.394672 84.295042 -14.631932 3.029257 -85.155861 -113.630455 14.412109 -51.51434
-0.2297 43.132799999999996 -0.0081 -175.513743 34.076454 -174.431666 1.167999 3.135038 159.554515 -1.614774 -3.256066 -165.703526 -20.429946 3.110046 -60.694722 34.386307 20.753409 71.103772 -22.870608 9.216947 -43.454409 -23.825286 4.449244 -20.866963 -113.067518 63.861637 80.145879 75.602035 8.501306 100.432649 -6.804172 -4.134498 80.374644 -56.004004 -61.202466 -77.176097 -66.981735 -7.491646 104.632807 11.022887 14.451411 -6.611016 42.755974 21.357791 -8.28967 -134.492744 69.356935 15.305676 -152.880497 6.700749 75.737359 -165.625244 51.4636 -134.948526 -86.046009 12.541608 102.012089 -167.178025 -27.966232 -54.729917 -41.474499 21.811794 75.135451 143.218206 -54.310667 -39.764711 -9.569148 40.993703 4.348283 -105.111381 -34.149572 -71.973579 124.878425 -20.422304 -97.427419 -80.395953 -58.083338 -56.529049 3.874795 60.2267 98.842374 151.983153 35.379926 -30.942311 149.470104 70.875292 -141.958599 48.091033 25.103614 99.736171 -178.792519 75.424053 140.381142 153.620449 58.615493 -80.660604 60.989902 -15.186015 110.539472 -27.303353 57.106979 -136.046256 23.251096 -35.601344 31.875624 -35.117461 -38.492424 46.316172 -52.662013 68.372037 -103.796493 84.803983 64.55977 4.168458 -28.156885 18.032388 -167.664597 13.321235 3.747851 -157.606072 53.634855 27.134693 104.936052 -50.857112 43.121137 142.976112 -18.117344 -38.880932 -118.491277 -146.007869 34.893853 60.68632
-0.0106 63.637299999999996 0.3051 -171.842661 34.65427 -169.79725 1.687403 5.756407 142.279401 -1.555087 1.868987 -138.171929 4.764816 9.124395 49.830305 -19.671414 -11.125795 -43.917069 7.653189 -0.361214 -5.396455 -33.537908 -1.68067 5.57357 -154.845556 -3.807021 162.69015 -55.027854 16.433525 10.401476 -88.637023 22.757306 -111.394331 20.651806 -76.199916 1.395673 97.826962 -58.931425 33.01025 -10.07544 29.935162 28.369942 -149.526909 29.251081 93.341258 -0.732335 5.352793 51.196453 -174.232103 -4.834822 127.552791 25.476262 -24.828982 114.71996 24.217349 19.256041 1.651851 -36.764108 -38.763916 -71.724517 19.603598 13.235729 13.844855 84.803 26.403117 -88.656361 -1.245996 -45.285326 5.678108 106.882879 2.797239 177.370185 -1.326799 19.647392 109.146616 -155.300784 -30.497856 -128.130116 -9.367329 -45.059049 5.391145 43.739744 16.409882 -27.656127 -16.953079 -42.513582 14.097063 -88.774817 -10.304707 -47.034614 77.633567 -41.329971 159.576597 97.321531 -84.020832 -134.958207 160.397696 26.694615 -176.001781 -118.173075 -42.735246 113.872147 -46.325685 67.116936 -12.066305 127.842277 20.700697 -147.034188 0.131508 -13.565211 0.560661 -5.564852 -7.075101 -123.210599 -51.187392 -23.380985 14.376193 -25.652295 -70.514467 71.318204 -43.342105 55.151968 -114.38639 160.435296 58.618181 49.730298 36.614811 48.197114 -1.353641 -47.093523 19.865448 -11.891487
